<?xml version="1.0" encoding="UTF-8"?>
<svg id="Layer_2" data-name="Layer 2" xmlns="http://www.w3.org/2000/svg" xmlns:xlink="http://www.w3.org/1999/xlink" viewBox="0 0 48.6 48.6">
  <defs>
    <style>
      .cls-1 {
        fill: #fff;
      }

      .cls-2 {
        fill: url(#linear-gradient);
      }
    </style>
    <linearGradient id="linear-gradient" x1="0" y1="24.3" x2="48.6" y2="24.3" gradientUnits="userSpaceOnUse">
      <stop offset="0" stop-color="#ab367c"/>
      <stop offset="1" stop-color="#50479d"/>
    </linearGradient>
  </defs>
  <g id="Layer_1-2" data-name="Layer 1">
    <g>
      <rect class="cls-2" width="48.6" height="48.6" rx="8.93" ry="8.93"/>
      <g>
        <path class="cls-1" d="M27.49,28.13c.14-.1.22-.28.19-.46l-.52-3.01,2.19-2.13c.19-.18.19-.48,0-.66-.07-.07-.17-.12-.27-.14l-3.02-.44-1.35-2.74c-.12-.23-.4-.33-.63-.21-.09.05-.17.12-.21.21l-1.35,2.74-3.02.44c-.26.04-.43.28-.4.53.01.1.06.2.14.27l2.19,2.13-.52,3.01c-.04.26.13.5.38.54.1.02.21,0,.3-.05l2.7-1.42,2.7,1.42c.16.08.35.07.49-.04h0ZM26.33,24.16c-.11.11-.16.26-.13.42l.4,2.31-2.08-1.09c-.14-.07-.3-.07-.44,0l-2.08,1.09.4-2.31c.03-.15-.02-.31-.13-.42l-1.68-1.64,2.32-.34c.15-.02.28-.12.35-.26l1.04-2.11,1.04,2.11c.07.14.2.23.35.26l2.32.34-1.68,1.64Z"/>
        <path class="cls-1" d="M33.07,29.86c-.65.19-1.62.48-2.6.78,0-.03.02-.06.03-.08l.11-.18c.04-.08.12-.13.2-.15.73-.2,1.87-.4,1.88-.4h.03c.57-.14.93-.72.79-1.29,0-.03-.02-.07-.03-.1l-.67-1.99s0-.1.03-.14l1.53-1.44c.43-.41.45-1.08.04-1.51-.02-.02-.05-.05-.07-.07l-1.58-1.39s-.05-.09-.04-.14l.6-2.02c.17-.57-.15-1.16-.72-1.33-.03,0-.06-.02-.09-.02l-2.06-.41s-.09-.05-.1-.1l-.48-2.05c-.14-.57-.71-.93-1.29-.79-.03,0-.06.02-.1.03l-1.99.67s-.1,0-.14-.03l-1.44-1.53c-.41-.43-1.08-.45-1.51-.04-.02.02-.05.05-.07.07l-1.39,1.58s-.09.05-.14.04l-2.02-.6c-.57-.17-1.16.15-1.33.72,0,.03-.02.06-.02.1l-.41,2.06s-.05.09-.1.1l-2.05.48c-.57.14-.93.71-.79,1.29,0,.03.02.06.03.09l.67,1.99s0,.1-.03.14l-1.53,1.44c-.43.41-.45,1.08-.04,1.51.02.02.05.05.07.07l1.58,1.39s.05.09.04.14c0,0,0,.02,0,.03l-.4,1.71c-1.12.2-2.2.56-3.21,1.08-.22.13-.3.42-.17.64.13.21.4.29.62.18.03-.01,2.5-1.35,5.15-1.08,1.4.14,2.21.66,2.92,1.12.53.34,1.03.66,1.67.76,2.9.44,3.94.74,3.94,1.56,0,.11-.04.21-.13.27-.18.14-.84.43-2.92.1-.78-.13-1.55-.29-2.31-.5-.25-.07-.51.08-.58.32-.07.25.07.5.32.58.79.22,1.6.4,2.41.53.6.1,1.2.16,1.81.17.84,0,1.44-.15,1.83-.44.33-.24.51-.62.5-1.02,0-.05,0-.09,0-.13,1.05-.33,4.44-1.39,6.01-1.84.79-.23,1.2-.05,1.29.13.07.15-.02.44-.4.72-.55.4-2.73,1.61-5.09,2.77-2.7,1.32-4.7,2.11-5.34,2.12h-.03c-4.01,0-11.08-2.07-11.15-2.09-.25-.07-.51.07-.58.32-.07.25.07.51.32.58.02,0,1.84.54,4.14,1.06,3.08.7,5.53,1.06,7.27,1.06h.04c1.91,0,9.83-4.23,10.98-5.07.71-.52.99-1.27.69-1.89-.27-.55-1.04-1-2.39-.62h0ZM22.59,30.24c-.44-.07-.82-.31-1.3-.62-.76-.49-1.71-1.1-3.33-1.27-.5-.05-1-.06-1.5-.02l.32-1.36c.11-.4-.01-.82-.32-1.09l-1.58-1.39c-.05-.05-.06-.13,0-.18,0,0,0,0,0,0l1.53-1.44c.3-.29.41-.72.28-1.12l-.67-2c-.02-.07.01-.14.08-.17,0,0,0,0,.01,0l2.05-.48c.41-.1.72-.42.8-.83l.41-2.06c.01-.07.08-.12.16-.1,0,0,0,0,.01,0l2.02.61c.4.12.83,0,1.11-.32l1.39-1.58s.06-.04.1-.04c.04,0,.07.01.1.04l1.44,1.53c.29.3.72.41,1.12.28l1.99-.67c.07-.02.14.01.17.08,0,0,0,0,0,.01l.48,2.05c.1.41.42.72.83.8l2.06.42s.07.03.09.06c.02.03.02.07.01.1l-.61,2.01c-.12.4,0,.83.32,1.11l1.58,1.39s.04.06.04.1c0,.04-.01.07-.04.1l-1.53,1.44c-.3.29-.41.72-.28,1.12l.67,1.99s0,.07,0,.11c-.02.03-.04.05-.08.06-.16.03-1.21.22-1.94.42-.32.09-.59.29-.76.58l-.11.18c-.14.24-.2.51-.17.79,0,.02,0,.04,0,.06-1.08.33-2.06.64-2.53.79-.68-.91-2.38-1.17-4.42-1.47h0Z"/>
        <path class="cls-1" d="M24.11,13.48c.26,0,.47-.21.47-.47h0v-1.37c0-.26-.21-.47-.47-.47s-.47.21-.47.47v1.37c0,.26.21.47.47.47Z"/>
        <path class="cls-1" d="M21.15,14.96c.05.21.24.35.45.35.04,0,.08,0,.12-.02.25-.07.4-.32.33-.57l-.32-1.19c-.07-.25-.32-.4-.57-.33-.25.07-.4.32-.33.57h0l.32,1.19Z"/>
        <path class="cls-1" d="M16.95,17.77c.18.18.48.18.66,0,.18-.18.18-.48,0-.66h0l-.87-.87c-.18-.19-.48-.19-.66-.01s-.19.48-.01.66c0,0,0,0,.01.01l.87.87Z"/>
        <path class="cls-1" d="M13.2,21.41c-.07.25.08.51.33.57,0,0,0,0,0,0l1.19.32s.08.02.12.02c.26,0,.47-.21.47-.47,0-.21-.14-.4-.35-.45l-1.19-.32c-.25-.07-.51.08-.57.33,0,0,0,0,0,0Z"/>
        <path class="cls-1" d="M13.11,27.49c.06.2.24.35.45.35.04,0,.08,0,.12-.02l1.31-.35c.25-.07.4-.32.33-.57-.07-.25-.32-.4-.57-.33l-1.31.35c-.25.07-.4.32-.33.57,0,0,0,0,0,0Z"/>
        <path class="cls-1" d="M33.3,26.41c-.07.25.08.51.33.57,0,0,0,0,0,0l1.19.32s.08.02.12.02c.26,0,.47-.21.47-.47,0-.21-.14-.4-.35-.45l-1.19-.32c-.25-.07-.51.08-.57.33,0,0,0,0,0,0Z"/>
        <path class="cls-1" d="M34.72,20.72l-1.19.32c-.25.07-.4.33-.33.58.06.2.24.35.45.35.04,0,.08,0,.12-.02l1.19-.32c.25-.07.4-.32.33-.57-.07-.25-.32-.4-.57-.33h0Z"/>
        <path class="cls-1" d="M30.72,17.51c.18.18.48.18.66,0l.87-.87c.18-.19.17-.48-.01-.66-.18-.18-.47-.18-.65,0l-.87.87c-.18.18-.18.48,0,.66,0,0,0,0,0,0h0Z"/>
        <path class="cls-1" d="M26.52,15.19s.08.02.12.02c.21,0,.4-.14.45-.35l.32-1.19c.07-.25-.08-.51-.33-.57-.25-.07-.51.08-.57.33l-.32,1.19c-.07.25.08.51.33.57Z"/>
        <path class="cls-1" d="M18.14,14.84c.08.15.24.23.41.23.08,0,.16-.02.23-.06.22-.13.3-.42.17-.64l-.69-1.19c-.13-.22-.42-.3-.64-.17s-.3.42-.17.64l.69,1.19Z"/>
        <path class="cls-1" d="M13.1,18.48l1.19.69c.22.13.51.05.64-.17s.05-.51-.17-.64h0l-1.19-.69c-.22-.13-.51-.05-.64.17s-.05.51.17.64h0Z"/>
        <path class="cls-1" d="M13.59,24.38c0-.26-.21-.47-.47-.47h-1.37c-.26,0-.47.21-.47.47s.21.47.47.47h1.37c.26,0,.47-.21.47-.47Z"/>
        <path class="cls-1" d="M36.85,23.53h-1.37c-.26,0-.47.21-.47.47s.21.47.47.47h1.37c.26,0,.47-.21.47-.47s-.21-.47-.47-.47h0Z"/>
        <path class="cls-1" d="M33.89,18.91c.08,0,.16-.02.23-.06l1.19-.69c.22-.13.3-.42.17-.64s-.42-.3-.64-.17l-1.19.69c-.22.13-.3.42-.17.64.08.15.24.24.41.24Z"/>
        <path class="cls-1" d="M29.49,14.82c.22.13.51.05.64-.17l.69-1.19c.13-.22.05-.51-.17-.64s-.51-.05-.64.17l-.69,1.19c-.13.22-.05.51.17.64,0,0,0,0,0,0Z"/>
      </g>
    </g>
  </g>
</svg>