<?xml version="1.0" encoding="UTF-8"?>
<svg id="Layer_2" data-name="Layer 2" xmlns="http://www.w3.org/2000/svg" xmlns:xlink="http://www.w3.org/1999/xlink" viewBox="0 0 48.6 48.6">
  <defs>
    <style>
      .cls-1 {
        fill: #fff;
      }

      .cls-2 {
        fill: url(#linear-gradient);
      }
    </style>
    <linearGradient id="linear-gradient" x1="0" y1="24.3" x2="48.6" y2="24.3" gradientUnits="userSpaceOnUse">
      <stop offset="0" stop-color="#ab367c"/>
      <stop offset="1" stop-color="#50479d"/>
    </linearGradient>
  </defs>
  <g id="Layer_1-2" data-name="Layer 1">
    <g>
      <rect class="cls-2" width="48.6" height="48.6" rx="8.93" ry="8.93"/>
      <g>
        <path class="cls-1" d="M30.44,34.87h-5.14v-.29c0-.2-.16-.36-.36-.36h-1.29c-.2,0-.36.16-.36.36v.29h-8.61v-.6c0-.2-.16-.36-.36-.36h-.6v-8.61h.29c.2,0,.36-.16.36-.36v-1.29c0-.2-.16-.36-.36-.36h-.29v-8.61h.6c.2,0,.36-.16.36-.36v-.6h1.99c.2,0,.36-.16.36-.36s-.16-.36-.36-.36h-1.99v-.6c0-.2-.16-.36-.36-.36h-1.91c-.2,0-.36.16-.36.36v1.91c0,.2.16.36.36.36h.6v8.61h-.29c-.2,0-.36.16-.36.36v1.29c0,.2.16.36.36.36h.29v8.61h-.6c-.2,0-.36.16-.36.36v1.91c0,.2.16.36.36.36h1.91c.2,0,.36-.16.36-.36v-.6h8.61v.29c0,.2.16.36.36.36h1.29c.2,0,.36-.16.36-.36v-.29h5.14c.2,0,.36-.16.36-.36s-.16-.36-.36-.36ZM12.77,12.77h1.2v1.2h-1.2v-1.2ZM13.08,24.01h.57v.57h-.57v-.57ZM13.96,35.83h-1.2v-1.2h1.2v1.2ZM24.59,35.52h-.57v-.57h.57v.57Z"/>
        <path class="cls-1" d="M36.19,14.68c.2,0,.36-.16.36-.36v-1.91c0-.2-.16-.36-.36-.36h-1.91c-.2,0-.36.16-.36.36v.6h-8.61v-.29c0-.2-.16-.36-.36-.36h-1.29c-.2,0-.36.16-.36.36v.29h-4.9c-.2,0-.36.16-.36.36s.16.36.36.36h4.9v.29c0,.2.16.36.36.36h1.29c.2,0,.36-.16.36-.36v-.29h8.61v.6c0,.2.16.36.36.36h.6v8.61h-.29c-.2,0-.36.16-.36.36v1.29c0,.2.16.36.36.36h.29v8.61h-.6c-.2,0-.36.16-.36.36v.6h-1.79c-.2,0-.36.16-.36.36s.16.36.36.36h1.79v.6c0,.2.16.36.36.36h1.91c.2,0,.36-.16.36-.36v-1.91c0-.2-.16-.36-.36-.36h-.6v-8.61h.29c.2,0,.36-.16.36-.36v-1.29c0-.2-.16-.36-.36-.36h-.29v-8.61h.6ZM24.59,13.65h-.57v-.57h.57v.57ZM35.83,35.83h-1.2v-1.2h1.2v1.2ZM35.52,24.59h-.57v-.57h.57v.57ZM34.63,12.77h1.2v1.2h-1.2v-1.2Z"/>
        <path class="cls-1" d="M15.84,32.44c.11.16.29.25.48.25h4.11c.39,0,.75-.25.89-.62l1.04-2.81h3.87l1.03,2.81c.14.37.49.62.89.62h4.11c.19,0,.37-.09.48-.25.11-.16.14-.36.08-.54l-5.39-15.36c-.13-.38-.49-.63-.89-.63h-4.5c-.4,0-.76.25-.89.63l-5.39,15.36c-.06.18-.04.38.08.54h0ZM21.83,16.78c.03-.09.12-.15.21-.15h2.17c.08,0,.15.03.21.15l1.35,3.86c.07.19.27.29.46.22s.29-.27.22-.46l-1.32-3.77h1.41c.1,0,.18.06.21.15l5.33,15.2h-1.57s-3.5-9.99-3.5-9.99c-.07-.19-.27-.29-.46-.22-.19.07-.29.27-.22.46l3.42,9.76h-1.61c-.09,0-.18-.06-.21-.15l-1.12-3.04c-.05-.14-.19-.23-.34-.23h-6.7c-.15,0-.28.09-.34.23l-.29.79c-.07.19.03.39.21.46s.39-.03.46-.21l.21-.56h1.56l-.95,2.56c-.03.09-.12.15-.21.15h-1.4l.21-.57c.07-.19-.03-.39-.21-.46-.19-.07-.39.03-.46.21l-.25.67s-.04.08-.08.1c-.04.03-.09.04-.14.04h-1.6l5.33-15.2Z"/>
        <path class="cls-1" d="M20.57,26.87h5.15c.12,0,.23-.06.29-.15s.08-.22.05-.33l-2.58-7.36c-.05-.14-.19-.24-.34-.24h0c-.15,0-.29.1-.34.24l-2.57,7.36c-.04.11-.02.23.05.33.07.09.18.15.29.15h0ZM23.4,26.15l.9-2.59.91,2.59h-1.81ZM23.14,20.24l.79,2.24-1.28,3.67h-1.57l2.06-5.91Z"/>
      </g>
    </g>
  </g>
</svg>