<?xml version="1.0" encoding="UTF-8"?>
<svg id="Layer_2" data-name="Layer 2" xmlns="http://www.w3.org/2000/svg" xmlns:xlink="http://www.w3.org/1999/xlink" viewBox="0 0 48.6 48.6">
  <defs>
    <style>
      .cls-1 {
        fill: #fff;
      }

      .cls-2 {
        fill: url(#linear-gradient);
      }
    </style>
    <linearGradient id="linear-gradient" x1="0" y1="24.3" x2="48.6" y2="24.3" gradientUnits="userSpaceOnUse">
      <stop offset="0" stop-color="#ab367c"/>
      <stop offset="1" stop-color="#50479d"/>
    </linearGradient>
  </defs>
  <g id="Layer_1-2" data-name="Layer 1">
    <g>
      <rect class="cls-2" y="0" width="48.6" height="48.6" rx="8.93" ry="8.93"/>
      <g id="Code_coding_mobile_development" data-name="Code, coding, mobile, development">
        <g>
          <path class="cls-1" d="M25.63,13.67h-2.66c-.24,0-.44-.2-.44-.44s.2-.44.44-.44h2.66c.24,0,.44.2.44.44s-.2.44-.44.44Z"/>
          <path class="cls-1" d="M29.17,37.58h-9.74c-1.22,0-2.21-.99-2.21-2.21v-15.05c0-.24.2-.44.44-.44s.44.2.44.44v15.05c0,.73.6,1.33,1.33,1.33h9.74c.73,0,1.33-.6,1.33-1.33v-15.05c0-.24.2-.44.44-.44s.44.2.44.44v15.05c0,1.22-.99,2.21-2.21,2.21Z"/>
          <path class="cls-1" d="M30.94,23.41c-.24,0-.44-.2-.44-.44v-9.74c0-.73-.6-1.33-1.33-1.33h-9.74c-.73,0-1.33.6-1.33,1.33v9.74c0,.24-.2.44-.44.44s-.44-.2-.44-.44v-9.74c0-1.22.99-2.21,2.21-2.21h9.74c1.22,0,2.21.99,2.21,2.21v9.74c0,.24-.2.44-.44.44Z"/>
          <g>
            <path class="cls-1" d="M33.6,15.49c-.24,0-.44-.15-.44-.4v-.09c0-.24.2-.44.44-.44s.44.2.44.44-.2.49-.44.49Z"/>
            <path class="cls-1" d="M33.6,17.26c-.24,0-.44-.15-.44-.4v-.09c0-.24.2-.44.44-.44s.44.2.44.44-.2.49-.44.49Z"/>
            <path class="cls-1" d="M33.6,19.03c-.24,0-.44-.15-.44-.4v-.09c0-.24.2-.44.44-.44s.44.2.44.44-.2.49-.44.49Z"/>
          </g>
          <g>
            <path class="cls-1" d="M15,30.45c-.24,0-.44-.15-.44-.4v-.09c0-.24.2-.44.44-.44s.44.2.44.44-.2.49-.44.49h0Z"/>
            <path class="cls-1" d="M15,32.22c-.24,0-.44-.15-.44-.4v-.09c0-.24.2-.44.44-.44s.44.2.44.44-.2.49-.44.49h0Z"/>
            <path class="cls-1" d="M15,34c-.24,0-.44-.15-.44-.4v-.09c0-.24.2-.44.44-.44s.44.2.44.44-.2.49-.44.49h0Z"/>
          </g>
          <path class="cls-1" d="M32.13,34.04s-.06,0-.09,0c-.24-.05-.39-.29-.34-.53l.29-1.35c.04-.17.16-.3.33-.34.42-.1.83-.27,1.21-.51.14-.09.33-.09.47,0l.88.56.54-.55-.56-.87c-.09-.14-.09-.33,0-.47.23-.39.4-.79.5-1.21.04-.16.17-.29.33-.33l1.01-.22v-.76l-1.01-.22c-.17-.04-.29-.16-.33-.33-.1-.42-.27-.83-.5-1.21-.09-.14-.09-.33,0-.47l.56-.88-.54-.54-.88.56c-.14.09-.33.09-.47,0-.39-.23-.79-.4-1.21-.51-.17-.04-.29-.17-.33-.34l-.22-1.01h-.39c-.24,0-.44-.2-.44-.44s.2-.44.44-.44h.74c.21,0,.39.15.43.35l.24,1.09c.32.1.64.23.95.4l.95-.61c.18-.11.4-.09.55.06l1.05,1.04c.15.15.17.38.06.55l-.61.95c.17.31.3.63.4.95l1.09.24c.2.05.35.23.35.43v1.47c0,.21-.14.39-.35.43l-1.09.24c-.1.33-.23.64-.4.95l.61.94c.11.17.09.4-.06.55l-1.05,1.05c-.15.15-.38.17-.55.06l-.95-.61c-.31.17-.62.3-.95.4l-.24,1.09c-.05.21-.23.35-.43.35h0Z"/>
          <path class="cls-1" d="M32.61,30.12c-.14,0-.28-.07-.37-.2-.14-.2-.08-.48.12-.61.49-.33.79-.88.79-1.47,0-.98-.79-1.77-1.77-1.77-.12,0-.24.01-.35.04-.24.05-.47-.1-.52-.35-.05-.24.11-.47.35-.52.17-.03.35-.05.53-.05,1.46,0,2.66,1.19,2.66,2.66,0,.89-.44,1.71-1.18,2.21-.08.05-.16.08-.25.08h0Z"/>
          <path class="cls-1" d="M17.21,23.41c-1.46,0-2.66-1.19-2.66-2.66,0-.89.44-1.72,1.18-2.21.2-.13.48-.08.61.12.14.2.08.48-.12.61-.49.33-.79.88-.79,1.48,0,.98.79,1.77,1.77,1.77.12,0,.24-.01.35-.03.23-.05.47.11.52.35.05.24-.11.47-.35.52-.17.03-.34.05-.52.05h0Z"/>
          <path class="cls-1" d="M17.21,26.96h-.74c-.21,0-.39-.15-.43-.35l-.24-1.09c-.32-.1-.64-.23-.95-.4l-.95.61c-.18.11-.4.09-.55-.06l-1.05-1.04c-.15-.15-.17-.38-.06-.55l.61-.95c-.17-.31-.3-.63-.4-.95l-1.09-.24c-.2-.05-.35-.23-.35-.43v-1.47c0-.21.14-.39.35-.43l1.09-.24c.1-.33.23-.64.4-.95l-.61-.94c-.11-.17-.09-.4.06-.55l1.05-1.05c.15-.15.38-.17.55-.06l.95.61c.31-.17.62-.3.95-.4l.24-1.09c.05-.24.29-.39.53-.34.24.05.39.29.34.53l-.29,1.35c-.04.17-.16.3-.33.34-.42.1-.83.27-1.21.51-.14.09-.33.09-.47,0l-.88-.56-.54.55.56.87c.09.14.09.33,0,.47-.23.39-.4.79-.5,1.21-.04.16-.17.29-.33.33l-1.01.22v.76l1.01.22c.17.04.29.16.33.33.1.42.27.83.5,1.21.09.14.09.33,0,.47l-.56.88.54.54.88-.56c.14-.09.33-.09.47,0,.39.23.79.4,1.21.51.17.04.29.17.33.34l.22,1.01h.39c.24,0,.44.2.44.44s-.2.44-.44.44h0Z"/>
          <g>
            <path class="cls-1" d="M23.86,26.51s-.07,0-.11-.01c-.24-.06-.38-.3-.32-.54l.89-3.54c.06-.24.29-.38.54-.32.24.06.38.3.32.54l-.89,3.54c-.05.2-.23.34-.43.34h0Z"/>
            <path class="cls-1" d="M26.51,26.51c-.11,0-.23-.04-.31-.13-.17-.17-.17-.45,0-.63l1.46-1.46-1.46-1.46c-.17-.17-.17-.45,0-.63s.45-.17.63,0l1.77,1.77c.17.17.17.45,0,.63l-1.77,1.77c-.09.09-.2.13-.31.13Z"/>
            <path class="cls-1" d="M22.08,26.51c-.11,0-.23-.04-.31-.13l-1.77-1.77c-.17-.17-.17-.45,0-.63l1.77-1.77c.17-.17.45-.17.63,0s.17.45,0,.63l-1.46,1.46,1.46,1.46c.17.17.17.45,0,.63-.09.09-.2.13-.31.13Z"/>
          </g>
        </g>
      </g>
    </g>
  </g>
</svg>