<?xml version="1.0" encoding="UTF-8"?>
<svg id="Layer_2" data-name="Layer 2" xmlns="http://www.w3.org/2000/svg" xmlns:xlink="http://www.w3.org/1999/xlink" viewBox="0 0 48.6 48.6">
  <defs>
    <style>
      .cls-1 {
        fill: #fff;
      }

      .cls-2 {
        fill: url(#linear-gradient);
      }
    </style>
    <linearGradient id="linear-gradient" x1="0" y1="24.3" x2="48.6" y2="24.3" gradientUnits="userSpaceOnUse">
      <stop offset="0" stop-color="#ab367c"/>
      <stop offset="1" stop-color="#50479d"/>
    </linearGradient>
  </defs>
  <g id="Layer_1-2" data-name="Layer 1">
    <g>
      <rect class="cls-2" x="0" width="48.6" height="48.6" rx="8.93" ry="8.93"/>
      <path class="cls-1" d="M31.06,19.31h.59v2.33c0,.2.16.37.37.37s.37-.16.37-.37v-2.33h.59c.2,0,.37-.16.37-.37s-.16-.37-.37-.37h-.59v-1.06c0-.2.17-.37.37-.37h.87c.2,0,.37-.16.37-.37s-.16-.37-.37-.37h-.87c-.61,0-1.1.49-1.1,1.1v1.06h-.59c-.2,0-.37.16-.37.37s.16.37.37.37ZM24.43,13.8c.2,0,.37-.16.37-.37s-.16-.37-.37-.37-.37.16-.37.37.16.37.37.37ZM16.52,20.15c.61,0,1.1-.49,1.1-1.1s-.49-1.1-1.1-1.1-1.1.49-1.1,1.1.49,1.1,1.1,1.1ZM16.52,18.69c.2,0,.37.16.37.37s-.16.37-.37.37-.37-.16-.37-.37.16-.37.37-.37ZM17.99,21.62c.61,0,1.1-.49,1.1-1.1v-2.93c0-.61-.49-1.1-1.1-1.1h-2.93c-.61,0-1.1.49-1.1,1.1v2.93c0,.61.49,1.1,1.1,1.1h2.93ZM14.69,20.52v-2.93c0-.2.16-.37.37-.37h2.93c.2,0,.37.16.37.37v2.93c0,.2-.16.37-.37.37h-2.93c-.2,0-.37-.16-.37-.37ZM18.74,27.04c-.18-.13-.41-.16-.61-.06-.05.02-.1.04-.15.05-.06.01-.13.02-.2.02-.22-.2-.49-.32-.79-.34-.35-.02-.68.09-.94.32-.24.21-.39.5-.44.81-.43-.07-.82-.28-1.1-.62-.12-.14-.3-.2-.48-.16-.18.04-.32.17-.37.34-.12.42-.38,1.7.7,2.55-.21.06-.44.06-.56.27-.11.19-.05.41,0,.53.09.23.31.39.67.48.2.05.45.09.74.09.67,0,1.51-.18,2.18-.73.67-.55.94-1.29,1.05-1.86.17-.19.31-.41.4-.65.06-.15.11-.31.13-.47.04-.22-.05-.44-.23-.57h0ZM17.83,28.31c-.05.05-.09.12-.1.2-.07.45-.28,1.08-.81,1.52-.65.53-1.55.6-2.08.54.17-.07.34-.16.5-.27.11-.07.17-.2.16-.34-.01-.13-.09-.25-.22-.3-.91-.41-1.05-1.09-1-1.64.47.38,1.07.59,1.69.57.2,0,.36-.17.36-.37v-.21s0,0,0,0c0-.17.07-.33.19-.43.11-.1.26-.15.41-.14.15.01.29.08.39.19.05.06.13.1.2.12.22.04.44.04.65-.02-.07.21-.19.41-.35.57h0ZM32.34,24.43s-.02,0-.03,0v-.79s.02,0,.03,0c2.53,0,4.59-2.06,4.59-4.59s-2.07-4.6-4.61-4.58v-.35c0-1.28-1.04-2.32-2.32-2.32h-11.13c-1.28,0-2.32,1.04-2.32,2.32v.35c-.9,0-1.77.25-2.52.73-.17.11-.22.34-.11.51.11.17.34.22.51.11.62-.4,1.35-.62,2.09-.62,2.12,0,3.85,1.73,3.85,3.85s-1.73,3.85-3.85,3.85-3.85-1.73-3.85-3.85c0-.77.23-1.51.65-2.15.11-.17.07-.4-.1-.51-.17-.11-.4-.07-.51.1-.51.76-.78,1.64-.78,2.56,0,2.53,2.06,4.59,4.59,4.59,0,0,.02,0,.03,0v.8c-.1,0-.19,0-.29,0-2.53,0-4.59,2.06-4.59,4.59s2.06,4.59,4.59,4.59c.1,0,.19,0,.29,0v.88c0,1.28,1.04,2.32,2.32,2.32h11.13c1.28,0,2.32-1.04,2.32-2.32v-.87s.02,0,.03,0c2.53,0,4.59-2.06,4.59-4.59s-2.06-4.59-4.59-4.59ZM32.34,15.2c2.12,0,3.85,1.73,3.85,3.85s-1.73,3.85-3.85,3.85-3.85-1.73-3.85-3.85,1.73-3.85,3.85-3.85ZM31.58,23.58v.91c-.25.04-.49.1-.73.18v-1.28c.24.08.48.14.73.19h0ZM18.01,14.37v.35c-.24-.08-.48-.14-.73-.19v-.41c0-.87.71-1.59,1.59-1.59h11.13c.87,0,1.59.71,1.59,1.59v.41c-.25.04-.5.1-.73.19v-.35c0-.61-.49-1.1-1.1-1.1h-1.34c-.42,0-.76.34-.76.76,0,.16-.13.29-.29.29h-5.85c-.16,0-.29-.13-.29-.29,0-.2-.08-.39-.22-.54-.14-.14-.33-.22-.53-.22h-1.34c-.61,0-1.1.49-1.1,1.1ZM17.28,23.58c.25-.04.5-.1.73-.19v1.38c-.23-.1-.48-.18-.73-.23v-.96ZM16.26,32.87c-2.12,0-3.85-1.73-3.85-3.85s1.73-3.85,3.85-3.85,3.85,1.73,3.85,3.85c0,2.25-1.77,3.85-3.85,3.85ZM31.58,34.47c0,.87-.71,1.59-1.59,1.59h-11.13c-.87,0-1.59-.71-1.59-1.59v-.99c.25-.06.5-.14.73-.23v.98c0,.61.49,1.1,1.1,1.1h10.64c.61,0,1.1-.49,1.1-1.1v-.88c.24.08.48.14.73.19v.94ZM32.34,32.87c-2.12,0-3.85-1.73-3.85-3.85,0-.33.04-.66.12-.97.05-.2-.07-.4-.26-.45-.2-.05-.4.07-.45.26-.1.38-.15.77-.15,1.16,0,1.72.96,3.23,2.36,4.01v1.2c0,.2-.16.37-.37.37h-10.64c-.2,0-.37-.16-.37-.37v-1.36c1.26-.82,2.1-2.24,2.1-3.85s-.84-3.03-2.1-3.85v-2.1c1.41-.78,2.36-2.29,2.36-4.01s-.96-3.23-2.36-4.01v-.68c0-.2.16-.37.37-.37h1.34s.01,0,.02,0c0,0,0,.01,0,.02,0,.57.46,1.03,1.03,1.03h5.85c.57,0,1.03-.46,1.03-1.03,0-.01.01-.02.02-.02h1.34c.2,0,.37.16.37.37v.68c-1.41.78-2.36,2.29-2.36,4.01s.96,3.23,2.37,4.01c0,.01,0,.03,0,.04v1.89c-.54.3-1.02.71-1.41,1.22-.12.16-.09.39.07.51.16.12.39.09.51-.07.74-.96,1.83-1.5,3.05-1.5,2.12,0,3.85,1.73,3.85,3.85,0,2.12-1.73,3.85-3.85,3.85h0ZM25.77,24.18c-.17-.1-.4-.05-.5.12-.07.11-.16.21-.27.28-.11.07-.24.07-.35,0l-.55-.33c-.11-.07-.17-.19-.16-.32.01-.13.05-.25.12-.36.1-.17.05-.4-.12-.5-.17-.1-.4-.05-.5.12-.12.2-.2.44-.22.67h0c-.04.41.16.81.51,1.02l.55.33c.17.1.36.15.55.15.2,0,.4-.06.58-.17.2-.13.38-.31.5-.51.1-.17.05-.4-.12-.5ZM34.26,28.62l-2.57-1.48c-.33-.2-.76.06-.76.44v2.96c0,.38.43.63.76.44l2.57-1.48c.33-.19.33-.69,0-.88ZM31.67,30.15v-2.19l1.89,1.09-1.89,1.09ZM24.34,20.98c-1.7.04-3.12,1.41-3.22,3.11-.03.43.03.86.17,1.27l-.39,1.11c-.07.21-.02.43.13.58.15.15.38.2.58.13l.77-.27c.61.48,1.36.72,2.13.7,1.77-.05,3.22-1.53,3.22-3.3,0-.9-.35-1.75-1-2.38-.65-.63-1.5-.97-2.41-.94h0ZM24.5,26.88c-.6.02-1.2-.18-1.67-.55-.13-.1-.28-.15-.44-.15-.08,0-.16.01-.23.04l-.45.16.27-.78c.05-.15.05-.31,0-.46-.11-.32-.15-.65-.13-1,.08-1.32,1.18-2.38,2.51-2.42.71-.02,1.37.24,1.88.73.5.49.78,1.15.78,1.86,0,1.38-1.13,2.54-2.51,2.57h0Z"/>
    </g>
  </g>
</svg>