<?xml version="1.0" encoding="UTF-8"?>
<svg id="Layer_2" data-name="Layer 2" xmlns="http://www.w3.org/2000/svg" xmlns:xlink="http://www.w3.org/1999/xlink" viewBox="0 0 48.6 48.6">
  <defs>
    <style>
      .cls-1 {
        fill: #fff;
      }

      .cls-2 {
        fill: url(#linear-gradient);
      }
    </style>
    <linearGradient id="linear-gradient" x1="0" y1="24.3" x2="48.6" y2="24.3" gradientUnits="userSpaceOnUse">
      <stop offset="0" stop-color="#ab367c"/>
      <stop offset="1" stop-color="#50479d"/>
    </linearGradient>
  </defs>
  <g id="Layer_1-2" data-name="Layer 1">
    <g>
      <rect class="cls-2" width="48.6" height="48.6" rx="8.93" ry="8.93"/>
      <g>
        <path class="cls-1" d="M16.34,19.71c-.52,0-.93.42-.93.93v7.31c0,.52.42.93.93.93s.93-.42.93-.93v-7.31c0-.52-.42-.93-.93-.93Z"/>
        <path class="cls-1" d="M12.44,19.71c-.52,0-.93.42-.93.93v5.03c0,.34-.1.79-.86,1.18-.24.12-.49.18-.78.18h0c-.32,0-.6-.08-.85-.24-.59-.38-.72-.72-.72-1.11v-5.03c0-.52-.42-.93-.93-.93s-.93.42-.93.93v5.03c0,1.11.53,2.01,1.58,2.68.55.35,1.17.53,1.85.53h0c.58,0,1.13-.13,1.62-.38,1.56-.79,1.89-1.98,1.89-2.84v-5.03c0-.52-.42-.93-.93-.93Z"/>
        <path class="cls-1" d="M39.62,24.04l2.01-2.86c.3-.42.2-1-.23-1.3-.42-.3-1-.2-1.3.23l-1.63,2.31-1.63-2.31c-.3-.42-.88-.52-1.3-.23-.42.3-.52.88-.23,1.3l2.01,2.86-2.38,3.38c-.3.42-.2,1,.23,1.3.16.12.35.17.54.17.29,0,.58-.14.76-.4l2-2.83,1.99,2.83c.18.26.47.4.76.4.19,0,.37-.06.54-.17.42-.3.52-.88.23-1.3l-2.38-3.38Z"/>
        <path class="cls-1" d="M32.76,19.71c-.52,0-.93.42-.93.93v5.03c0,.34-.1.79-.86,1.18-.24.12-.49.18-.78.18h0c-.32,0-.6-.08-.85-.24-.59-.38-.72-.72-.72-1.11v-5.03c0-.52-.42-.93-.93-.93s-.93.42-.93.93v5.03c0,1.11.53,2.01,1.58,2.68.55.35,1.17.53,1.85.53h0c.58,0,1.13-.13,1.62-.38,1.56-.79,1.89-1.98,1.89-2.84v-5.03c0-.52-.42-.93-.93-.93h0Z"/>
        <path class="cls-1" d="M24.07,19.78c-.47-.2-1.02.02-1.22.5l-3.09,7.31c-.2.47.02,1.02.5,1.22.12.05.24.07.36.07.36,0,.71-.21.86-.57l3.09-7.31c.2-.47-.02-1.02-.5-1.22Z"/>
      </g>
    </g>
  </g>
</svg>