<?xml version="1.0" encoding="UTF-8"?>
<svg id="Layer_2" data-name="Layer 2" xmlns="http://www.w3.org/2000/svg" xmlns:xlink="http://www.w3.org/1999/xlink" viewBox="0 0 48.6 48.6">
  <defs>
    <style>
      .cls-1 {
        fill: #fff;
      }

      .cls-2 {
        fill: url(#linear-gradient);
      }
    </style>
    <linearGradient id="linear-gradient" x1="0" y1="24.3" x2="48.6" y2="24.3" gradientUnits="userSpaceOnUse">
      <stop offset="0" stop-color="#ab367c"/>
      <stop offset="1" stop-color="#50479d"/>
    </linearGradient>
  </defs>
  <g id="Layer_1-2" data-name="Layer 1">
    <g>
      <rect class="cls-2" x="0" y="0" width="48.6" height="48.6" rx="8.93" ry="8.93"/>
      <g id="layer1">
        <path id="path13423" class="cls-1" d="M16.03,11.25c-.72,0-1.3.59-1.3,1.3v13.92c0,.58.87.58.87,0v-10.88h17.4v10.88c-.01.59.88.59.87,0v-13.92c0-.72-.59-1.3-1.3-1.3h-16.53ZM16.03,12.12h16.53c.25,0,.43.18.43.43v2.18H15.6v-2.18c0-.25.18-.43.43-.43ZM16.9,12.99c-.24,0-.44.19-.44.44s.19.44.44.44.44-.19.44-.44-.19-.44-.44-.44ZM18.64,12.99c-.24,0-.44.19-.44.44s.19.44.44.44.44-.19.44-.44-.19-.44-.44-.44ZM20.38,12.99c-.24,0-.44.19-.44.44s.19.44.44.44.44-.19.44-.44-.19-.44-.44-.44ZM26.45,12.99c-.59.04-.55.88.02.87h5.22c.57-.01.57-.86,0-.87h-5.24ZM12.55,13.86c-.72,0-1.31.59-1.31,1.3v15.66c0,.72.59,1.3,1.31,1.3h23.49c.72,0,1.3-.59,1.3-1.3v-15.66c0-.72-.59-1.3-1.3-1.3h-.87c-.59-.01-.59.88,0,.87h.87c.25,0,.43.18.43.43v12.62H12.12v-12.62c0-.25.19-.43.44-.43h.87c.59.01.59-.88,0-.87h-.87ZM25.61,17.33c-.19,0-.36.12-.42.31l-2.61,7.83c-.18.55.64.83.83.28l2.61-7.83c.1-.28-.11-.58-.41-.58ZM27.5,19.85l2.21,1.84-2.21,1.84c-.47.37.11,1.07.56.67l2.61-2.17c.21-.17.21-.49,0-.67l-2.61-2.18c-.08-.07-.18-.1-.3-.1-.41.04-.56.53-.26.77h0ZM20.81,19.07c-.1,0-.19.04-.27.1l-2.61,2.18c-.21.17-.21.49,0,.67l2.61,2.17c.45.42,1.05-.3.56-.67l-2.21-1.84,2.21-1.84c.32-.26.13-.78-.29-.77h0ZM12.12,28.65h24.37v2.17c0,.25-.18.43-.43.43H12.55c-.25,0-.44-.18-.44-.43v-2.17ZM25.19,29.52h-1.79c-.55.07-.52.85.02.87h1.74c.6.05.65-.86.02-.87h0ZM21.86,32.97c-.17,0-.33.1-.41.26-.21.45-.58.97-1.23,1.52h-.71c-.72,0-1.3.59-1.3,1.31v.87c0,.24.19.44.43.44h11.31c.24,0,.44-.2.44-.44v-.87c0-.72-.59-1.31-1.31-1.31h-.71c-.65-.54-1.02-1.07-1.23-1.52-.07-.16-.24-.26-.42-.26-.31.02-.5.34-.37.62.17.36.43.75.78,1.15h-5.67c.35-.4.61-.79.78-1.15.14-.29-.07-.62-.38-.62ZM19.51,35.61h9.57c.25,0,.44.19.44.44v.43h-10.44v-.43c0-.25.18-.44.43-.44h0Z" vector-effect="none"/>
      </g>
    </g>
  </g>
</svg>